<svg xmlns="http://www.w3.org/2000/svg" width="100" height="100" viewBox="0 0 100 100"><path fill="#fff" d="M0 7.9V6.1a8.2 8.2 0 0 1 1.4-2.6 5.2 5.2 0 0 1 5.7-1.3l14.2 4.5a5.6 5.6 0 0 1 4.2 5.2c.1 1.2.2 2.5.4 3.7s.3 2.7.5 4.1h.4l14.9 1.7 19.6 2.1 18.9 2.2 14.9 1.6a12.5 12.5 0 0 1 2.7 1 5.9 5.9 0 0 1 2.2 3.3v2.1l-.3 1-1.5 8.8c-.8 4.8-1.7 9.5-2.5 14.3a4.2 4.2 0 0 1-1.6 2.7 5.4 5.4 0 0 1-3.9 1.3H30.7c-1.2 0-1.2 0-1.4 1.1a15.5 15.5 0 0 1-.4 2.1l-.6 3.7h58.9a5.1 5.1 0 0 1 3.4 8.4 5.4 5.4 0 0 1-4.6 2H21.9A5.3 5.3 0 0 1 17 73c.5-3.3 1.2-6.5 1.7-9.8a24.6 24.6 0 0 0 .8-7.7c-.8-6.7-1.3-13.3-2-20s-1.3-12.6-1.9-18.9c0-.7-.3-.9-.9-1.1L4 12.1a6.8 6.8 0 0 1-2.6-1.5A13.8 13.8 0 0 1 0 7.9zM37.9 90a8 8 0 0 1-8 8 8.1 8.1 0 0 1-7.9-8.2 8 8 0 0 1 15.9.2zm47.1-.1a7.9 7.9 0 1 1-15.8.1 7.9 7.9 0 0 1 7.8-8 7.8 7.8 0 0 1 8 7.9z"/></svg>