<svg xmlns="http://www.w3.org/2000/svg" width="100" height="100" viewBox="0 0 100 100"><path fill="#59c6d0" d="M33.9 34.8h-1.8a9.6 9.6 0 0 1-1.7 0 38.8 38.8 0 0 0-19.9 5.3A23.4 23.4 0 0 0 2.7 47a15.3 15.3 0 0 0-2.3 4.6 7.4 7.4 0 0 0-.3 2.6c-.1.2 0 .3-.1.5v2.4c.1.4.1.9.2 1.3a11.4 11.4 0 0 0 2 4.8 29.2 29.2 0 0 0 8.6 8.9 2.7 2.7 0 0 1 1.1 1.9 11.1 11.1 0 0 1-.5 4.4A28.5 28.5 0 0 1 7.6 86l-2.4 3.7c-.2.2-.4.4-.3.6s.5.2.7.2a9.5 9.5 0 0 0 5.6-1.9 52.6 52.6 0 0 0 7.9-6.2 33.9 33.9 0 0 0 4.6-4.7 2 2 0 0 1 2.1-.9 77 77 0 0 0 8.3.5 57.5 57.5 0 0 0 9.3-1 43 43 0 0 0 10.9-3.9 25.3 25.3 0 0 0 9.1-7.8 15.3 15.3 0 0 0 2.3-4.6 13.1 13.1 0 0 0 .3-3.4 25.4 25.4 0 0 0-.1-3.9 17.6 17.6 0 0 0-1-3 20.9 20.9 0 0 0-6.1-7.4A36.7 36.7 0 0 0 44 35.7a30.8 30.8 0 0 0-6.8-.8h-1.6a9.6 9.6 0 0 1-1.7-.1z"/><path fill="#243e92" d="M57.8 10.5h2.1a7.4 7.4 0 0 0 2.1.1 48.4 48.4 0 0 1 24.9 6.6 29.9 29.9 0 0 1 9.8 8.6 18.9 18.9 0 0 1 2.8 5.7 11.9 11.9 0 0 1 .4 3.3c.1.2 0 .4.1.6v3a8.8 8.8 0 0 0-.2 1.6 15.3 15.3 0 0 1-2.5 6 39.1 39.1 0 0 1-10.7 11.1 3.1 3.1 0 0 0-1.4 2.3 12.8 12.8 0 0 0 .6 5.5 37.2 37.2 0 0 0 4.7 9.6l3.1 4.5c.1.2.5.5.3.8s-.6.2-.9.2c-2.6.2-4.8-1-7-2.3a72.2 72.2 0 0 1-9.8-7.7 46.9 46.9 0 0 1-5.8-6 2.7 2.7 0 0 0-2.6-1.1 71.3 71.3 0 0 1-10.3.7 65.5 65.5 0 0 1-11.7-1.3 54.3 54.3 0 0 1-13.5-4.8 32.3 32.3 0 0 1-11.4-9.7 20.7 20.7 0 0 1-2.8-5.8 20.1 20.1 0 0 1-.5-4.2 37.5 37.5 0 0 1 .3-4.8 10 10 0 0 1 1.2-3.8 25.4 25.4 0 0 1 7.6-9.3 46.3 46.3 0 0 1 18.4-8.2 34.7 34.7 0 0 1 8.5-1h2.1a7.4 7.4 0 0 0 2.1-.2z"/></svg>