<svg xmlns="http://www.w3.org/2000/svg" width="100" height="100" viewBox="0 0 100 100"><path fill="#e6e7e8" d="M33.9 33.8h-3.5A39.7 39.7 0 0 0 10.5 39a24.9 24.9 0 0 0-7.8 7 16 16 0 0 0-2.3 4.6 8.3 8.3 0 0 0-.3 2.7c-.1.1 0 .3-.1.4v2.5c.1.4.1.8.2 1.3a12 12 0 0 0 2 4.8 29.2 29.2 0 0 0 8.6 8.9 2.7 2.7 0 0 1 1.1 1.8 10.9 10.9 0 0 1-.5 4.4 27.6 27.6 0 0 1-3.8 7.7l-2.4 3.6c-.2.2-.4.4-.3.7s.5.1.7.1c2.1.2 3.9-.8 5.6-1.8a52.6 52.6 0 0 0 7.9-6.2 29.8 29.8 0 0 0 4.6-4.8 2.1 2.1 0 0 1 2.1-.8 77 77 0 0 0 8.3.5 48.2 48.2 0 0 0 9.3-1.1 42.8 42.8 0 0 0 10.9-3.8 25.3 25.3 0 0 0 9.1-7.8 15.8 15.8 0 0 0 2.3-4.7 12.3 12.3 0 0 0 .3-3.3 25.4 25.4 0 0 0-.1-3.9 13.2 13.2 0 0 0-1-3 20.9 20.9 0 0 0-6.1-7.4A36.7 36.7 0 0 0 44 34.8a30.9 30.9 0 0 0-6.8-.9h-3.3z"/><path fill="#fff" d="M57.8 9.6H62a49.3 49.3 0 0 1 24.9 6.5 30.2 30.2 0 0 1 9.8 8.7 19.6 19.6 0 0 1 2.8 5.6 12.4 12.4 0 0 1 .4 3.3c.1.2 0 .4.1.6v3a9.9 9.9 0 0 0-.2 1.7 16.7 16.7 0 0 1-2.5 6 40.4 40.4 0 0 1-10.7 11.2 3 3 0 0 0-1.4 2.3 13 13 0 0 0 .6 5.5 35.1 35.1 0 0 0 4.7 9.5c1 1.6 2 3 3.1 4.5s.5.5.3.9-.6.1-.9.2c-2.6.2-4.8-1-7-2.4a65.1 65.1 0 0 1-9.8-7.7 40.4 40.4 0 0 1-5.8-5.9 2.5 2.5 0 0 0-2.6-1.1 71.2 71.2 0 0 1-10.3.6 57.5 57.5 0 0 1-11.7-1.3 50.6 50.6 0 0 1-13.5-4.8 32 32 0 0 1-11.4-9.6 21.3 21.3 0 0 1-2.8-5.9 19.3 19.3 0 0 1-.5-4.2 38.7 38.7 0 0 1 .3-4.8 10.5 10.5 0 0 1 1.2-3.8 25.1 25.1 0 0 1 7.6-9.2 47.1 47.1 0 0 1 26.9-9.3h4.2z"/></svg>