<svg xmlns="http://www.w3.org/2000/svg" width="100" height="100" viewBox="0 0 100 100"><path fill="#243e92" d="M37.4 43.9l8.8 7.6a6.8 6.8 0 0 0 8.5 0l39.9-34.2a7.2 7.2 0 0 0-5-1.9H11.2a7 7 0 0 0-4.9 1.9l31.1 26.6zm-35-23.3a7.2 7.2 0 0 0-2.3 5.2v46.7a6.9 6.9 0 0 0 2.2 5.1l31.2-30.4zm95.4 57.5a6.9 6.9 0 0 0 2.2-5.2V26.3a7.2 7.2 0 0 0-2.3-5.3L66.1 48l16.3 15.6z"/><path fill="#243e92" d="M79.2 67.1L62.8 51.7l16.4 15.4L63 51.6l-8.3 7.1a6.5 6.5 0 0 1-8.5 0l-8.8-7.5L6.1 81.7a7.5 7.5 0 0 0 5.1 2h78.4a7.1 7.1 0 0 0 4.9-1.9z"/></svg>