<svg xmlns="http://www.w3.org/2000/svg" width="100" height="100" viewBox="0 0 100 100"><path fill="#fff" d="M37.4 44.4l8.8 7.5a6.5 6.5 0 0 0 8.5 0l39.9-34.1a7.3 7.3 0 0 0-5-2H11.2a7 7 0 0 0-4.9 2l31.1 26.6zM2.4 21a7.4 7.4 0 0 0-2.3 5.3V73a6.9 6.9 0 0 0 2.2 5.1l31.2-30.5zm95.4 57.6a7.1 7.1 0 0 0 2.2-5.2V26.7a7.2 7.2 0 0 0-2.3-5.2l-31.6 27L82.4 64z"/><path fill="#fff" d="M79.2 67.6L62.8 52.2l16.4 15.4L63 52.1l-8.3 7.1a6.5 6.5 0 0 1-8.5 0l-8.8-7.5L6.1 82.1a7.2 7.2 0 0 0 5.1 2.1h78.4a7.6 7.6 0 0 0 4.9-1.9z"/></svg>