<svg xmlns="http://www.w3.org/2000/svg" width="100" height="100" viewBox="0 0 100 100"><path fill="#243e92" d="M0 95V5.1c0-.1.1-.2.1-.3A5.5 5.5 0 0 1 5.6.1h88.8a5.4 5.4 0 0 1 5.5 5.6v88.7a5.4 5.4 0 0 1-5.5 5.6H69V61.3h12.9c.7-5 1.3-10 2-15.1H69c0-.1-.1-.2-.1-.3 0-3.2 0-6.4.1-9.6a8.6 8.6 0 0 1 .2-2.3 4.8 4.8 0 0 1 3.2-4.1 9.7 9.7 0 0 1 3.4-.6h8.6V15.8h-.3a96.5 96.5 0 0 0-12-.6 23.3 23.3 0 0 0-5.3.7 16.7 16.7 0 0 0-11.6 9.7 20.9 20.9 0 0 0-1.8 8.9v11.8h-13v15h13V100H5.5a5.5 5.5 0 0 1-5.3-4.1c-.1-.3-.1-.6-.2-.9z"/></svg>