<svg xmlns="http://www.w3.org/2000/svg" width="100" height="100" viewBox="0 0 100 100"><path fill="#243e92" d="M99.9 77c0 12.3-8 22.9-22.6 23H22.9C11.7 100 .1 94 .1 75.1V25C.1 8.9 10.1.1 21.6.1h56.8c13.1 0 21.5 8.4 21.5 21.2zM87 34.8c0-10.7-9.3-21.7-21.2-21.7s-21.1-.3-31.6 0-20.3 7.5-20.8 18.2c-.6 12.5-.6 25.1 0 37.6a18.4 18.4 0 0 0 18 17.7c12.4.5 24.8.5 37.1 0 9.4-.3 17.7-8 17.9-16.6s.6-24.4.6-35.2z"/><path fill="#243e92" d="M20.5 30.4a11.5 11.5 0 0 1 11.4-10.2q18-.4 36 0c6.6.2 11.6 4.9 11.8 11.4.4 12.2.5 24.5 0 36.8-.3 7-5.6 11.5-12.8 11.7-11.2.2-22.5.2-33.7 0-7.8-.2-13-5.5-13.3-13.2-.2-5.6-.4-30 .6-36.5zm29.4 38.7a19.1 19.1 0 0 0 19.3-19 19.4 19.4 0 0 0-19.3-19.2 19.1 19.1 0 0 0-19 18.7c0 11.1 8.1 19.5 19 19.5zm19.8-34.5a4.1 4.1 0 0 0 4.5-4.3 4.4 4.4 0 0 0-4.5-4.6 4.5 4.5 0 0 0-4.4 4.4 4.2 4.2 0 0 0 4.4 4.5z"/><path fill="#243e92" d="M50 62.4a12.5 12.5 0 0 1-12.4-12.2A12.4 12.4 0 1 1 50 62.4z"/></svg>