<svg xmlns="http://www.w3.org/2000/svg" width="100" height="100" viewBox="0 0 100 100"><path fill="#fff" d="M99.9 76.9c0 12.3-8 23-22.6 23H22.9C11.7 99.9.1 94 .1 75.1V24.9C.1 8.8 10.1 0 21.6 0h56.8c13.1 0 21.5 8.4 21.5 21.2zM87 34.8C87 24 77.7 13 65.8 13s-21.1-.2-31.6 0-20.3 7.5-20.8 18.2c-.6 12.5-.6 25.1 0 37.6a18.6 18.6 0 0 0 18 17.8c12.4.5 24.8.4 37.1 0 9.4-.3 17.7-8.1 17.9-16.7s.6-24.4.6-35.1z"/><path fill="#fff" d="M20.5 30.3a11.3 11.3 0 0 1 11.4-10.1q18-.4 36 0c6.6.1 11.6 4.8 11.8 11.3.4 12.3.5 24.6 0 36.8-.3 7-5.6 11.6-12.8 11.7-11.2.2-22.5.2-33.7 0-7.8-.1-13-5.4-13.3-13.2-.2-5.6-.4-30 .6-36.5zm29.4 38.8A19.1 19.1 0 0 0 69.2 50a19.5 19.5 0 0 0-19.3-19.2 19.1 19.1 0 0 0-19 18.8c0 11 8.1 19.4 19 19.5zm19.8-34.5a4.3 4.3 0 0 0 4.5-4.4 4.4 4.4 0 0 0-4.5-4.5 4.4 4.4 0 0 0-4.4 4.3 4.3 4.3 0 0 0 4.4 4.6z"/><path fill="#fff" d="M50 62.3a12.3 12.3 0 1 1 12.3-12.2A12.2 12.2 0 0 1 50 62.3z"/></svg>