<svg xmlns="http://www.w3.org/2000/svg"><symbol id="cart-icon-white" viewBox="0 0 100 100"><path fill="#fff" d="M0 7.9V6.1a8.2 8.2 0 0 1 1.4-2.6 5.2 5.2 0 0 1 5.7-1.3l14.2 4.5a5.6 5.6 0 0 1 4.2 5.2c.1 1.2.2 2.5.4 3.7s.3 2.7.5 4.1h.4l14.9 1.7 19.6 2.1 18.9 2.2 14.9 1.6a12.5 12.5 0 0 1 2.7 1 5.9 5.9 0 0 1 2.2 3.3v2.1l-.3 1-1.5 8.8c-.8 4.8-1.7 9.5-2.5 14.3a4.2 4.2 0 0 1-1.6 2.7 5.4 5.4 0 0 1-3.9 1.3H30.7c-1.2 0-1.2 0-1.4 1.1a15.5 15.5 0 0 1-.4 2.1l-.6 3.7h58.9a5.1 5.1 0 0 1 3.4 8.4 5.4 5.4 0 0 1-4.6 2H21.9A5.3 5.3 0 0 1 17 73c.5-3.3 1.2-6.5 1.7-9.8a24.6 24.6 0 0 0 .8-7.7c-.8-6.7-1.3-13.3-2-20s-1.3-12.6-1.9-18.9c0-.7-.3-.9-.9-1.1L4 12.1a6.8 6.8 0 0 1-2.6-1.5A13.8 13.8 0 0 1 0 7.9zM37.9 90a8 8 0 0 1-8 8 8.1 8.1 0 0 1-7.9-8.2 8 8 0 0 1 15.9.2zm47.1-.1a7.9 7.9 0 1 1-15.8.1 7.9 7.9 0 0 1 7.8-8 7.8 7.8 0 0 1 8 7.9z"/></symbol><symbol id="cart-icon-primary-color" viewBox="0 0 100 100"><path fill="#243e92" d="M0 8.1V6.3a8.2 8.2 0 0 1 1.4-2.6 5.2 5.2 0 0 1 5.7-1.3l14.2 4.5a5.5 5.5 0 0 1 4.2 5.2c.1 1.2.2 2.5.4 3.7s.3 2.7.5 4.1h.4l14.9 1.7 19.6 2.1L80.2 26l14.9 1.6a8.8 8.8 0 0 1 2.7 1 5.9 5.9 0 0 1 2.2 3.3V34l-.3 1-1.5 8.8c-.8 4.8-1.7 9.5-2.5 14.3a4.5 4.5 0 0 1-1.6 2.7 5.9 5.9 0 0 1-3.9 1.3H30.7c-1.2 0-1.2 0-1.4 1.1a15.5 15.5 0 0 1-.4 2.1c-.2 1.2-.4 2.3-.6 3.6h58.9a5.1 5.1 0 0 1 3.4 8.4 5.4 5.4 0 0 1-4.6 2H21.9a5.3 5.3 0 0 1-4.9-6.2c.5-3.2 1.2-6.4 1.7-9.7s1.1-5.1.8-7.7c-.8-6.7-1.3-13.3-2-20s-1.3-12.6-1.9-18.9c0-.7-.3-.9-.9-1.1L4 12.3a7.1 7.1 0 0 1-2.6-1.6A10.8 10.8 0 0 1 0 8.1zm37.9 82.1A8 8 0 1 1 22 90a8 8 0 0 1 15.9.2zm47.1-.1a7.9 7.9 0 1 1-8-7.9 7.9 7.9 0 0 1 8 7.9z"/></symbol><symbol id="chat-icon-primary-color" viewBox="0 0 100 100"><path fill="#59c6d0" d="M33.9 34.8h-1.8a9.6 9.6 0 0 1-1.7 0 38.8 38.8 0 0 0-19.9 5.3A23.4 23.4 0 0 0 2.7 47a15.3 15.3 0 0 0-2.3 4.6 7.4 7.4 0 0 0-.3 2.6c-.1.2 0 .3-.1.5v2.4c.1.4.1.9.2 1.3a11.4 11.4 0 0 0 2 4.8 29.2 29.2 0 0 0 8.6 8.9 2.7 2.7 0 0 1 1.1 1.9 11.1 11.1 0 0 1-.5 4.4A28.5 28.5 0 0 1 7.6 86l-2.4 3.7c-.2.2-.4.4-.3.6s.5.2.7.2a9.5 9.5 0 0 0 5.6-1.9 52.6 52.6 0 0 0 7.9-6.2 33.9 33.9 0 0 0 4.6-4.7 2 2 0 0 1 2.1-.9 77 77 0 0 0 8.3.5 57.5 57.5 0 0 0 9.3-1 43 43 0 0 0 10.9-3.9 25.3 25.3 0 0 0 9.1-7.8 15.3 15.3 0 0 0 2.3-4.6 13.1 13.1 0 0 0 .3-3.4 25.4 25.4 0 0 0-.1-3.9 17.6 17.6 0 0 0-1-3 20.9 20.9 0 0 0-6.1-7.4A36.7 36.7 0 0 0 44 35.7a30.8 30.8 0 0 0-6.8-.8h-1.6a9.6 9.6 0 0 1-1.7-.1z"/><path fill="#243e92" d="M57.8 10.5h2.1a7.4 7.4 0 0 0 2.1.1 48.4 48.4 0 0 1 24.9 6.6 29.9 29.9 0 0 1 9.8 8.6 18.9 18.9 0 0 1 2.8 5.7 11.9 11.9 0 0 1 .4 3.3c.1.2 0 .4.1.6v3a8.8 8.8 0 0 0-.2 1.6 15.3 15.3 0 0 1-2.5 6 39.1 39.1 0 0 1-10.7 11.1 3.1 3.1 0 0 0-1.4 2.3 12.8 12.8 0 0 0 .6 5.5 37.2 37.2 0 0 0 4.7 9.6l3.1 4.5c.1.2.5.5.3.8s-.6.2-.9.2c-2.6.2-4.8-1-7-2.3a72.2 72.2 0 0 1-9.8-7.7 46.9 46.9 0 0 1-5.8-6 2.7 2.7 0 0 0-2.6-1.1 71.3 71.3 0 0 1-10.3.7 65.5 65.5 0 0 1-11.7-1.3 54.3 54.3 0 0 1-13.5-4.8 32.3 32.3 0 0 1-11.4-9.7 20.7 20.7 0 0 1-2.8-5.8 20.1 20.1 0 0 1-.5-4.2 37.5 37.5 0 0 1 .3-4.8 10 10 0 0 1 1.2-3.8 25.4 25.4 0 0 1 7.6-9.3 46.3 46.3 0 0 1 18.4-8.2 34.7 34.7 0 0 1 8.5-1h2.1a7.4 7.4 0 0 0 2.1-.2z"/></symbol><symbol id="chat-icon-white" viewBox="0 0 100 100"><path fill="#e6e7e8" d="M33.9 33.8h-3.5A39.7 39.7 0 0 0 10.5 39a24.9 24.9 0 0 0-7.8 7 16 16 0 0 0-2.3 4.6 8.3 8.3 0 0 0-.3 2.7c-.1.1 0 .3-.1.4v2.5c.1.4.1.8.2 1.3a12 12 0 0 0 2 4.8 29.2 29.2 0 0 0 8.6 8.9 2.7 2.7 0 0 1 1.1 1.8 10.9 10.9 0 0 1-.5 4.4 27.6 27.6 0 0 1-3.8 7.7l-2.4 3.6c-.2.2-.4.4-.3.7s.5.1.7.1c2.1.2 3.9-.8 5.6-1.8a52.6 52.6 0 0 0 7.9-6.2 29.8 29.8 0 0 0 4.6-4.8 2.1 2.1 0 0 1 2.1-.8 77 77 0 0 0 8.3.5 48.2 48.2 0 0 0 9.3-1.1 42.8 42.8 0 0 0 10.9-3.8 25.3 25.3 0 0 0 9.1-7.8 15.8 15.8 0 0 0 2.3-4.7 12.3 12.3 0 0 0 .3-3.3 25.4 25.4 0 0 0-.1-3.9 13.2 13.2 0 0 0-1-3 20.9 20.9 0 0 0-6.1-7.4A36.7 36.7 0 0 0 44 34.8a30.9 30.9 0 0 0-6.8-.9h-3.3z"/><path fill="#fff" d="M57.8 9.6H62a49.3 49.3 0 0 1 24.9 6.5 30.2 30.2 0 0 1 9.8 8.7 19.6 19.6 0 0 1 2.8 5.6 12.4 12.4 0 0 1 .4 3.3c.1.2 0 .4.1.6v3a9.9 9.9 0 0 0-.2 1.7 16.7 16.7 0 0 1-2.5 6 40.4 40.4 0 0 1-10.7 11.2 3 3 0 0 0-1.4 2.3 13 13 0 0 0 .6 5.5 35.1 35.1 0 0 0 4.7 9.5c1 1.6 2 3 3.1 4.5s.5.5.3.9-.6.1-.9.2c-2.6.2-4.8-1-7-2.4a65.1 65.1 0 0 1-9.8-7.7 40.4 40.4 0 0 1-5.8-5.9 2.5 2.5 0 0 0-2.6-1.1 71.2 71.2 0 0 1-10.3.6 57.5 57.5 0 0 1-11.7-1.3 50.6 50.6 0 0 1-13.5-4.8 32 32 0 0 1-11.4-9.6 21.3 21.3 0 0 1-2.8-5.9 19.3 19.3 0 0 1-.5-4.2 38.7 38.7 0 0 1 .3-4.8 10.5 10.5 0 0 1 1.2-3.8 25.1 25.1 0 0 1 7.6-9.2 47.1 47.1 0 0 1 26.9-9.3h4.2z"/></symbol><symbol id="facebook-primary-color" viewBox="0 0 100 100"><path fill="#243e92" d="M0 95V5.1c0-.1.1-.2.1-.3A5.5 5.5 0 0 1 5.6.1h88.8a5.4 5.4 0 0 1 5.5 5.6v88.7a5.4 5.4 0 0 1-5.5 5.6H69V61.3h12.9c.7-5 1.3-10 2-15.1H69c0-.1-.1-.2-.1-.3 0-3.2 0-6.4.1-9.6a8.6 8.6 0 0 1 .2-2.3 4.8 4.8 0 0 1 3.2-4.1 9.7 9.7 0 0 1 3.4-.6h8.6V15.8h-.3a96.5 96.5 0 0 0-12-.6 23.3 23.3 0 0 0-5.3.7 16.7 16.7 0 0 0-11.6 9.7 20.9 20.9 0 0 0-1.8 8.9v11.8h-13v15h13V100H5.5a5.5 5.5 0 0 1-5.3-4.1c-.1-.3-.1-.6-.2-.9z"/></symbol><symbol id="facebook-white" viewBox="0 0 100 100"><path fill="#fff" d="M0 95V5.1a.4.4 0 0 0 .1-.3A5.5 5.5 0 0 1 5.6.1h88.8a5.5 5.5 0 0 1 5.6 5.6v88.7a5.5 5.5 0 0 1-5.6 5.6H69V61.3h13c.6-5 1.3-10 1.9-15.1H69v-9.9a16.4 16.4 0 0 1 .2-2.3 4.8 4.8 0 0 1 3.2-4.1 10.2 10.2 0 0 1 3.4-.6h8.6V15.8h-.2a96.5 96.5 0 0 0-12-.6 25 25 0 0 0-5.4.7 16.7 16.7 0 0 0-11.6 9.7 24.8 24.8 0 0 0-1.8 8.9v11.8h-13v15h13V100H5.5a5.5 5.5 0 0 1-5.3-4.1c-.1-.3-.1-.6-.2-.9z"/></symbol><symbol id="email-icon-white" viewBox="0 0 100 100"><path fill="#fff" d="M37.4 44.4l8.8 7.5a6.5 6.5 0 0 0 8.5 0l39.9-34.1a7.3 7.3 0 0 0-5-2H11.2a7 7 0 0 0-4.9 2l31.1 26.6zM2.4 21a7.4 7.4 0 0 0-2.3 5.3V73a6.9 6.9 0 0 0 2.2 5.1l31.2-30.5zm95.4 57.6a7.1 7.1 0 0 0 2.2-5.2V26.7a7.2 7.2 0 0 0-2.3-5.2l-31.6 27L82.4 64z"/><path fill="#fff" d="M79.2 67.6L62.8 52.2l16.4 15.4L63 52.1l-8.3 7.1a6.5 6.5 0 0 1-8.5 0l-8.8-7.5L6.1 82.1a7.2 7.2 0 0 0 5.1 2.1h78.4a7.6 7.6 0 0 0 4.9-1.9z"/></symbol><symbol id="email-icon-primary-color" viewBox="0 0 100 100"><path fill="#243e92" d="M37.4 43.9l8.8 7.6a6.8 6.8 0 0 0 8.5 0l39.9-34.2a7.2 7.2 0 0 0-5-1.9H11.2a7 7 0 0 0-4.9 1.9l31.1 26.6zm-35-23.3a7.2 7.2 0 0 0-2.3 5.2v46.7a6.9 6.9 0 0 0 2.2 5.1l31.2-30.4zm95.4 57.5a6.9 6.9 0 0 0 2.2-5.2V26.3a7.2 7.2 0 0 0-2.3-5.3L66.1 48l16.3 15.6z"/><path fill="#243e92" d="M79.2 67.1L62.8 51.7l16.4 15.4L63 51.6l-8.3 7.1a6.5 6.5 0 0 1-8.5 0l-8.8-7.5L6.1 81.7a7.5 7.5 0 0 0 5.1 2h78.4a7.1 7.1 0 0 0 4.9-1.9z"/></symbol><symbol id="instagram-primary-color" viewBox="0 0 100 100"><path fill="#243e92" d="M99.9 77c0 12.3-8 22.9-22.6 23H22.9C11.7 100 .1 94 .1 75.1V25C.1 8.9 10.1.1 21.6.1h56.8c13.1 0 21.5 8.4 21.5 21.2zM87 34.8c0-10.7-9.3-21.7-21.2-21.7s-21.1-.3-31.6 0-20.3 7.5-20.8 18.2c-.6 12.5-.6 25.1 0 37.6a18.4 18.4 0 0 0 18 17.7c12.4.5 24.8.5 37.1 0 9.4-.3 17.7-8 17.9-16.6s.6-24.4.6-35.2z"/><path fill="#243e92" d="M20.5 30.4a11.5 11.5 0 0 1 11.4-10.2q18-.4 36 0c6.6.2 11.6 4.9 11.8 11.4.4 12.2.5 24.5 0 36.8-.3 7-5.6 11.5-12.8 11.7-11.2.2-22.5.2-33.7 0-7.8-.2-13-5.5-13.3-13.2-.2-5.6-.4-30 .6-36.5zm29.4 38.7a19.1 19.1 0 0 0 19.3-19 19.4 19.4 0 0 0-19.3-19.2 19.1 19.1 0 0 0-19 18.7c0 11.1 8.1 19.5 19 19.5zm19.8-34.5a4.1 4.1 0 0 0 4.5-4.3 4.4 4.4 0 0 0-4.5-4.6 4.5 4.5 0 0 0-4.4 4.4 4.2 4.2 0 0 0 4.4 4.5z"/><path fill="#243e92" d="M50 62.4a12.5 12.5 0 0 1-12.4-12.2A12.4 12.4 0 1 1 50 62.4z"/></symbol><symbol id="instagram-white" viewBox="0 0 100 100"><path fill="#fff" d="M99.9 76.9c0 12.3-8 23-22.6 23H22.9C11.7 99.9.1 94 .1 75.1V24.9C.1 8.8 10.1 0 21.6 0h56.8c13.1 0 21.5 8.4 21.5 21.2zM87 34.8C87 24 77.7 13 65.8 13s-21.1-.2-31.6 0-20.3 7.5-20.8 18.2c-.6 12.5-.6 25.1 0 37.6a18.6 18.6 0 0 0 18 17.8c12.4.5 24.8.4 37.1 0 9.4-.3 17.7-8.1 17.9-16.7s.6-24.4.6-35.1z"/><path fill="#fff" d="M20.5 30.3a11.3 11.3 0 0 1 11.4-10.1q18-.4 36 0c6.6.1 11.6 4.8 11.8 11.3.4 12.3.5 24.6 0 36.8-.3 7-5.6 11.6-12.8 11.7-11.2.2-22.5.2-33.7 0-7.8-.1-13-5.4-13.3-13.2-.2-5.6-.4-30 .6-36.5zm29.4 38.8A19.1 19.1 0 0 0 69.2 50a19.5 19.5 0 0 0-19.3-19.2 19.1 19.1 0 0 0-19 18.8c0 11 8.1 19.4 19 19.5zm19.8-34.5a4.3 4.3 0 0 0 4.5-4.4 4.4 4.4 0 0 0-4.5-4.5 4.4 4.4 0 0 0-4.4 4.3 4.3 4.3 0 0 0 4.4 4.6z"/><path fill="#fff" d="M50 62.3a12.3 12.3 0 1 1 12.3-12.2A12.2 12.2 0 0 1 50 62.3z"/></symbol><symbol id="star-outline" viewBox="0 0 100 100"><path fill="none" stroke="#243e92" stroke-miterlimit="10" d="M50 2.4l15.5 31.4 34.5 5-25 24.3 5.9 34.5L50 81.3 19.1 97.6 25 63.1 0 38.8l34.5-5L50 2.4z"/></symbol><symbol id="star-yellow" viewBox="0 0 100 100"><path fill="#f7ec13" d="M50 2.4l15.5 31.4 34.5 5-25 24.3 5.9 34.5L50 81.3 19.1 97.6 25 63.1 0 38.8l34.5-5L50 2.4z"/></symbol><symbol id="search-icon-white" viewBox="0 0 100 100"><path fill="#fff" d="M64.2 12a36.4 36.4 0 1 0-5.9 55.7l29 29.8a5 5 0 0 0 7.1.1l2.2-2.2a5.1 5.1 0 0 0 .1-7.2L67.8 58.5A36.5 36.5 0 0 0 64.2 12zm-7.6 44.5a26.6 26.6 0 1 1 .5-37.6 26.7 26.7 0 0 1-.5 37.6z"/></symbol><symbol id="search-icon-primary-color" viewBox="0 0 100 100"><path fill="#243e92" d="M64.2 12.5a36.4 36.4 0 1 0-5.9 55.7l29 29.8a5 5 0 0 0 7.1.1l2.2-2.2a5 5 0 0 0 .1-7.1L67.8 59a36.5 36.5 0 0 0-3.6-46.5zM56.6 57a26.6 26.6 0 1 1 .5-37.6 26.6 26.6 0 0 1-.5 37.6z"/></symbol><symbol id="twitter-primary-color" viewBox="0 0 100 100"><path fill="#243e92" d="M.1 81.8c11.2.7 20.9-1.9 29.7-8.5-10.7-2.4-17.7-7.8-18.5-14.5h7.9l.3-.5c-9.9-3.2-15.3-9.8-16-20.1l8.6 2.4C3.4 30.4 1.5 21.4 6.6 12.9c11.1 13 25.2 20.3 42.1 21.5.2-3.2 0-6.2.6-9.2 3-15.3 22.1-21.5 33.7-11a3 3 0 0 0 3.5.8c3.6-1.2 7.1-2.6 10.7-3.9-1.4 4.4-4.3 7.7-7.9 10.9l10.3-2.7.4.3c-2.6 2.6-4.9 5.5-7.7 7.8s-2.2 2.9-2.3 5.1c-1 22.3-10.3 40.2-30.1 51.1s-39 9.8-58.3-.8z"/></symbol><symbol id="twitter-white" viewBox="0 0 100 100"><path fill="#fff" d="M.1 81.8c11.2.7 20.9-2 29.7-8.6-10.7-2.4-17.7-7.8-18.5-14.5h7.9l.3-.5c-9.9-3.2-15.3-9.8-16-20l8.6 2.3C3.4 30.4 1.5 21.4 6.6 12.9c11.1 13 25.2 20.2 42.1 21.4.2-3.1 0-6.2.6-9.1C52.3 9.9 71.4 3.6 83 14.1a3 3 0 0 0 3.5.9l10.7-4c-1.4 4.4-4.3 7.7-7.9 10.9l10.3-2.7.4.4c-2.6 2.6-4.9 5.4-7.7 7.8s-2.2 2.9-2.3 5c-1 22.4-10.3 40.2-30.1 51.1s-39 9.8-58.3-.8z"/></symbol></svg>