<svg xmlns="http://www.w3.org/2000/svg" width="256" height="256" viewBox="0 0 256 256"><path fill="#231f20" d="M164.2 7.7s-6.9-9.8-18.5-6.4-17.8 9.7-17.8 9.7-7.1 7.9-4.5 18.2 10.3 30.1 10.3 30.1 2.9 9 9.8 12.4c0 0-4.2-26.9-9-35.5s-5.8-16.2 1.3-19 8.2 3.9 18.1 3.9 13.3-10.2 10.3-13.4zm-29.6 156.4s-3.7-5.6-10.3-1.7-7.6 8.6-9.2 10.7c0 0-4.2 4.6-2.7 16.1 1.2 9 7 22.8 7 21.9s8.5 20.7 13 22.6c0 0 4.5.3 3-2.3-7-12.3-15.1-36.6-17.3-41.7s-2.1-11.3 1.3-14.7 3.1-3.6 9.3-4 7.9-5.1 5.9-6.9z"/><circle cx="231.6" cy="77.8" r="4.5" fill="#231f20"/><path fill="#231f20" d="M227.1 87.6s-3.6 7.8-15.7 10.3-24 2.2-30.9 0c0 0-15.3-7.1-12.3-15.9 0-3.4 2.8-5.9 8.7-.1s14.1 12.6 25.5 10c8-1.8 12.1-3.5 14.6-6s8-8.8 10.1 1.7zm0-15.9a23.6 23.6 0 0 0-6.8-4.9 40 40 0 0 0-7.7-3.1 58 58 0 0 0-8.1-1.6l-2.1-.3-2.1-.2-2-.2H192a29.5 29.5 0 0 0-4.2.2h-2l-2.1.3-4 .9a22.9 22.9 0 0 0-7.2 3.5 12.3 12.3 0 0 0-4.5 6.8 11 11 0 0 1 3.4-7.9 20.5 20.5 0 0 1 7.5-4.8l2.1-.7a8.7 8.7 0 0 1 2.2-.5l2.1-.5 2.2-.3 4.4-.3h6.5l2.2.3 2.2.2 2.2.3a49.8 49.8 0 0 1 8.4 2.3 36.2 36.2 0 0 1 7.8 4.1 22.1 22.1 0 0 1 5.9 6.4zm-61.9 6.1c-.2-.4-.6-.4-1-.5l-1.2-.2h-2.3a34 34 0 0 0-4.6.6 21.9 21.9 0 0 0-8.4 3.6 15.7 15.7 0 0 0-3.2 3.1 17.4 17.4 0 0 0-1.1 1.8l-.5 1-.4 1.1c-1.2 3-2.5 5.9-3.8 8.8s-2.6 5.7-4 8.6-2.7 5.7-4.1 8.6-2.8 5.6-4.3 8.4-2.9 5.6-4.4 8.4c-.5 1.5-1 3.1-1.4 4.6s-.7 3.2-1 4.9a25.7 25.7 0 0 0-.2 4.8 7.7 7.7 0 0 0 1.5 4.6 7.5 7.5 0 0 1-2.3-4.5 17.3 17.3 0 0 1-.4-5.1 29.4 29.4 0 0 1 .5-5.1 32.2 32.2 0 0 1 1.1-5c1.3-2.9 2.6-5.8 4-8.7l4-8.5 4.2-8.6c1.4-2.8 2.7-5.7 4.2-8.5l4.2-8.5.5-1a6.1 6.1 0 0 1 .5-1.2l1.5-2.1a17 17 0 0 1 3.8-3.3 24.2 24.2 0 0 1 9.3-3 25.7 25.7 0 0 1 4.8-.2l2.4.3 1.2.3c.3 0 .8.1.9.5zm8 32.2l-12.9 34.8s-8.6 16.9-17 16.9-15.6-2.3-18.2-4.9 1.3-7.7 6-5.2 12.7 3.2 17.6-1.7 4.8-29.9 9.9-39.9 6-9.5 9.4-9.5 7.3 3.8 5.2 9.5zm-2.1-95.8a89.5 89.5 0 0 1 6.9 9.3 109.5 109.5 0 0 1 5.9 10 73.4 73.4 0 0 1 4.6 10.7l.4 1.4.3 1.6.3 2.8c.2 2 .4 3.9.5 5.8-.8-1.8-1.4-3.6-2-5.4l-.9-2.8a5.6 5.6 0 0 1-.4-1.2l-.6-1.3c-1.6-3.4-3.4-6.7-5.1-10.1s-3.5-6.8-5.2-10.3-3.3-6.9-4.7-10.5zm-3.1 4.7l8.6 26.2a32.3 32.3 0 0 1 1.8 10.7s-7.1 2-10.4 7.8-8.8-1.1-6-3.9 13.3-4.3 9.1-15a109.8 109.8 0 0 1-5.9-21.1s-.8-8.3 2.8-4.7z"/><path fill="#231f20" d="M152.2 156.6a67.1 67.1 0 0 1 15.3 6.7 20.5 20.5 0 0 1 3.5 2.5c1.2 1 2.1 1.9 3.1 2.9s3.8 4.2 5.6 6.4 3.2 4.6 4.6 7.1 1.3 2.4 1.9 3.7l.9 1.9.8 1.9a70.4 70.4 0 0 1 4.6 16.1 156.9 156.9 0 0 0-6.9-15 102.2 102.2 0 0 0-8.5-13.8c-1.6-2.1-3.4-4.2-5.2-6.2l-2.7-2.9-3.1-2.5a163.6 163.6 0 0 0-13.9-8.8zm40.3 56s4.1 14.9-2.5 21.5-16.2 9.5-16.2 9.5 4.6-5.6 4.6-9.9-1.1-11.8-6-16.8 5.5-9 6-1.3 4.3 17.6 7.3 14.6 3-11.1 3-14.6.4-6.4 3.8-3z"/><path fill="#231f20" d="M146.1 168c2.1 3.9 3.9 7.9 5.7 12 .9 2.1 1.8 4.1 2.6 6.2l1.2 3.1 1 3.2a97.3 97.3 0 0 0 5.6 11.8c2.1 3.8 4.3 7.6 6.7 11.3a15.1 15.1 0 0 0 1.8 2.6l.9 1.3.5.5c.1.2.5.5.6.8a11.8 11.8 0 0 1 1.9 3.2 19.3 19.3 0 0 1 1.1 3.4 23.7 23.7 0 0 1 .6 7 14.2 14.2 0 0 1-2.3 6.9 9.9 9.9 0 0 1-2.7 2.7 21.9 21.9 0 0 1-3 1.6 38.3 38.3 0 0 1-6.5 2.2 20.9 20.9 0 0 1-13.3-1.1 21.8 21.8 0 0 0 12.9-.4 34.2 34.2 0 0 0 5.9-2.6l1.4-.8 1.3-.8a10 10 0 0 0 1.9-2.2c2-3.3 1.9-7.8.8-11.8a16.5 16.5 0 0 0-2.4-5.4c-.2-.2-.3-.2-.5-.5l-.6-.7-1.1-1.3-2-2.8c-2.4-3.9-4.6-7.7-6.6-11.7-1-2-2-4-2.9-6.1a53.2 53.2 0 0 1-2.4-6.4c-1.1-4.3-2.4-8.4-3.9-12.6zm-82-15.8s-.9 11.3 4.5 15.8 16.2 8 24.7 9.4 16 2.4 16 2.4 1.3-7.2 5.9-11.8c2.7-2.7-4.2-4.2-6.5-2s-1 9-7.7 7.7-24-3.3-29.6-7.7-.9-7.6 0-8.5 2.9-6.4-1.4-7.6c-6-1.6-5.9 2.3-5.9 2.3zm4.5-7.9a17.2 17.2 0 0 1 4.6-4.3 14.8 14.8 0 0 1 6.3-2.2c4.2-.3 8.3-.4 12.4-.3s8.3.3 12.5.8c2 .3 4.2.7 6.2 1.2l3 .9a8.4 8.4 0 0 1 2.9 1.3 9 9 0 0 0-1.6-.3h-1.5l-3.1-.2-6.1-.3H91.9c-4.1 0-8.3-.2-12.4-.4a16.4 16.4 0 0 0-5.6 1.1 39.2 39.2 0 0 0-5.3 2.7zm-9.8 11a14.5 14.5 0 0 1-8.7-.6 10.1 10.1 0 0 1-3.9-2.5 14.4 14.4 0 0 1-2.8-3.7c-2.8-5.2-4.5-10.7-6.2-16.3-.8-2.7-1.5-5.5-2.2-8.3l-.9-4.3a33.2 33.2 0 0 1-.6-4.4 50.6 50.6 0 0 1-.2-8.7 22.8 22.8 0 0 1 2.2-8.5 30.7 30.7 0 0 0-.6 8.5 80.5 80.5 0 0 0 1.1 8.4c.2 1.4.5 2.8.8 4.1l1.2 4.1c.7 2.7 1.5 5.5 2.3 8.2s1.6 5.5 2.5 8.2a67.4 67.4 0 0 0 2.9 7.9 19 19 0 0 0 2 3.4 11.8 11.8 0 0 0 3 2.5 16 16 0 0 0 8.1 2zM38.5 93.6a16.8 16.8 0 0 1 15.6-3.3C63.7 93 68.6 109 68.6 109l5.6 19.3s1.5 5.5 1.5 7.7c0 0-10.3 4.7-11.7 9.9s-7 1.7-5.2-2.4 13.8-7.5 11.4-15.2-5-21.2-9.4-25.6-6.6-11.5-11.5-6.5-7.8 5.5-9.8 3.5-2.6-4.5-1-6.1zm6.7 61.8c-5.7 2.4-11 5.9-14.6 10.6a77.1 77.1 0 0 0-5.2 7.5 91.2 91.2 0 0 0-4.7 7.9 89.6 89.6 0 0 0-4.1 8.2 67.8 67.8 0 0 0-3.3 8.5 34.3 34.3 0 0 0-.9 4.4c-.3 1.5-.5 3-.7 4.6a33.8 33.8 0 0 0-.1 4.5 8.5 8.5 0 0 0 .3 2.3 6.3 6.3 0 0 0 .7 2.2 9.8 9.8 0 0 1-1.9-4.3 39.3 39.3 0 0 1-.6-4.8 43.6 43.6 0 0 1 .8-9.5 64.1 64.1 0 0 1 7-17.6 82.1 82.1 0 0 1 10.8-15.6 25.2 25.2 0 0 1 7.6-5.8 28.6 28.6 0 0 1 8.9-3.1zm-30.6 65s5.8 8.6 12.3 8.6 8.8-2.9 10.7-7.2 4.2-13.3 8.9-19.6 14.5-22.6 16-29.3-6-4.9-7.1-3.8-10.2 15-10.2 20.1-9.8 16.6-11.1 22.9-1.9 10.8-6 10.8-4.4-5.9-7.2-6.8-8.4 1.8-6.3 4.3zm72.6-38.1s-5.1 21.7-18.6 37.9-22 15.8-27.7 13.5-1.6-6.4 0-6.4 5.9 4.1 10.2 1.7 17.5-13.8 20.1-20.4 10.2-15.3 5.6-21.6-.1-8.8 1.7-8.8 7.1-.4 8.7 4.1zM46.5 88l-4.3-21.5a4 4 0 0 0-3.8-2.4c-2.9 0-2.3 4.3-2.3 4.3l4.7 21.4s2.6-2.7 5.7-1.8z"/></svg>