<svg xmlns="http://www.w3.org/2000/svg" width="32" height="32" viewBox="0 0 32 32"><path fill="#231f20" d="M21.8 1.4a2.3 2.3 0 0 0-2.4-.8 5.5 5.5 0 0 0-2.2 1.2 2.8 2.8 0 0 0-.6 2.3A33.3 33.3 0 0 0 17.9 8a3 3 0 0 0 1.2 1.5A21.5 21.5 0 0 0 18 5c-.6-1.1-.7-2 .2-2.4s1 .5 2.3.5 1.6-1.3 1.3-1.7zM18 21.2s-.4-.7-1.3-.2a3.2 3.2 0 0 0-1.1 1.4s-.6.5-.4 2a14.8 14.8 0 0 0 .9 2.8s1.1 2.6 1.6 2.8.6.1.4-.3a51.6 51.6 0 0 1-2.2-5.2 1.8 1.8 0 0 1 .2-1.9c.5-.5.4-.5 1.2-.5s1-.7.7-.9z"/><circle cx="30.3" cy="10.3" r=".6" fill="#231f20"/><path fill="#231f20" d="M29.7 11.5a2.6 2.6 0 0 1-2 1.3 7.3 7.3 0 0 1-3.9 0s-1.9-.9-1.5-2 .3-.7 1.1 0a3.4 3.4 0 0 0 3.2 1.3 3.3 3.3 0 0 0 1.8-.8c.3-.2 1.1-1.1 1.3.2zm0-2a4 4 0 0 0-1.8-1l-2.1-.3a7.5 7.5 0 0 0-2.1.2c-.6.2-1.3.6-1.4 1.3a1 1 0 0 1 .4-1 1.8 1.8 0 0 1 .9-.6 5.6 5.6 0 0 1 2.2-.3 5.4 5.4 0 0 1 2.2.4 3.7 3.7 0 0 1 1.7 1.3zm-7.8.8a1.7 1.7 0 0 0-1.2 0l-1 .4c-.3.3-.6.5-.7.9a3.7 3.7 0 0 1-.5 1.1 14.7 14.7 0 0 1-1 2.2L16.4 17l-.3 1.2c0 .4-.1.9.2 1.2a1.4 1.4 0 0 1-.4-1.2 5.9 5.9 0 0 1 .2-1.3l1.1-2.2 1-2.1.5-1.1a3.9 3.9 0 0 1 .8-1l1.2-.3a1.6 1.6 0 0 1 1.2.1zm1 4.1l-1.6 4.4s-1.1 2.1-2.2 2.1a4 4 0 0 1-2.3-.6c-.3-.3.2-1 .8-.7a1.8 1.8 0 0 0 2.2-.2c.6-.6.6-3.8 1.3-5s.7-1.2 1.2-1.2.9.4.6 1.2zm-.3-12.2a13.8 13.8 0 0 1 1.7 2.5 6.9 6.9 0 0 1 .5 1.3 3.9 3.9 0 0 1 .2 1.5c-.2-.4-.3-.9-.5-1.3l-.6-1.3c-.4-.9-.9-1.7-1.3-2.7zm-.3.6l1 3.4a2.7 2.7 0 0 1 .3 1.3 2.6 2.6 0 0 0-1.3 1 .5.5 0 1 1-.8-.5c.3-.3 1.7-.5 1.1-1.9a16.5 16.5 0 0 1-.7-2.7s-.1-1 .4-.6z"/><path fill="#231f20" d="M20.2 20.3a7 7 0 0 1 2 .8 7.1 7.1 0 0 1 1.5 1.5 8.3 8.3 0 0 1 1.6 3.9 16.2 16.2 0 0 0-1.9-3.7 9.3 9.3 0 0 0-1.4-1.4zm5.1 7.1s.6 1.8-.3 2.7a5.9 5.9 0 0 1-2 1.2 2.6 2.6 0 0 0 .6-1.3 3.3 3.3 0 0 0-.8-2.1c-.6-.6.7-1.1.8-.2s.5 2.3.9 1.9.4-1.4.4-1.9 0-.8.4-.3z"/><path fill="#231f20" d="M19.5 21.7a16.9 16.9 0 0 1 1.3 3.1 16.4 16.4 0 0 0 1.6 2.9 1.6 1.6 0 0 0 .4.7 2 2 0 0 1 .4.8A2.3 2.3 0 0 1 23 31l-.7.5-.8.3a3.2 3.2 0 0 1-1.7-.1 2.9 2.9 0 0 0 1.6-.1c.5-.2 1.1-.4 1.3-.8a1.6 1.6 0 0 0 .1-1.5 1.1 1.1 0 0 0-.3-.7l-.5-.7a14 14 0 0 1-1.5-3c-.3-1.1-.7-2.1-1-3.2zm-10.4-2a2.8 2.8 0 0 0 .6 2 7.2 7.2 0 0 0 3.1 1.2l2 .3a3.5 3.5 0 0 1 .8-1.5c.3-.3-.6-.5-.9-.2s-.1 1.1-.9.9a11.8 11.8 0 0 1-3.8-.9.7.7 0 0 1 0-1.1c.1-.1.4-.8-.2-1s-.7.3-.7.3zm.6-1a2.2 2.2 0 0 1 1.3-.8h1.6l1.6.2a2.6 2.6 0 0 1 1.5.4h-4.6a2.4 2.4 0 0 0-1.4.2zm-1.3 1.4a1.4 1.4 0 0 1-1.1-.1 1.5 1.5 0 0 1-.8-.8 7 7 0 0 1-.8-2 14.2 14.2 0 0 1-.5-2.2 4.9 4.9 0 0 1 .3-2.1 5 5 0 0 0 0 2.1l.6 2.1a11.8 11.8 0 0 0 .7 2 1.7 1.7 0 0 0 1.6 1zm-2.5-7.8a1.8 1.8 0 0 1 1.9-.4c1.2.3 1.9 2.3 1.9 2.3l.7 2.5a5.6 5.6 0 0 1 .2 1s-1.3.5-1.5 1.2-.9.2-.7-.3 1.8-.9 1.5-1.9a12.7 12.7 0 0 0-1.2-3.3c-.6-.5-.8-1.4-1.5-.8s-1 .7-1.2.5-.3-.6-.1-.8zm.8 7.8a4 4 0 0 0-1.8 1.3l-1.3 2a9.5 9.5 0 0 0-.9 2.1 5.2 5.2 0 0 0-.2 1.1 1.7 1.7 0 0 0 .1 1.2 1.7 1.7 0 0 1-.3-1.2 4.9 4.9 0 0 1 .1-1.2 8.3 8.3 0 0 1 .8-2.2 14.3 14.3 0 0 1 1.4-2 4.3 4.3 0 0 1 2.1-1.1zm-3.9 8.2s.8 1.1 1.6 1.1a1.2 1.2 0 0 0 1.3-.9A18 18 0 0 1 6.9 26a14.8 14.8 0 0 0 2-3.7c.2-.8-.8-.6-.9-.5a9 9 0 0 0-1.3 2.6c0 .6-1.2 2.1-1.4 2.9s-.2 1.4-.8 1.4-.5-.8-.9-.9-1 .2-.8.5zm9.2-4.8a12.5 12.5 0 0 1-2.3 4.8c-1.8 2.1-2.8 2-3.5 1.7s-.2-.8 0-.8.7.5 1.3.2a7.8 7.8 0 0 0 2.5-2.6c.3-.8 1.3-1.9.7-2.7s0-1.1.2-1.1.9-.1 1.1.5zM6.9 11.6l-.6-2.7a.5.5 0 0 0-.5-.3c-.3 0-.2.5-.2.5l.6 2.7a.8.8 0 0 1 .7-.2z"/></svg>