<svg xmlns="http://www.w3.org/2000/svg" width="16" height="16" viewBox="0 0 16 16"><path fill="#231f20" d="M6.7.8A1.6 1.6 0 0 0 4.9.2a4.1 4.1 0 0 0-1.8.9A2.4 2.4 0 0 0 2.6 3c.3 1 1.1 2.9 1.1 2.9a2.2 2.2 0 0 0 .9 1.3 16.6 16.6 0 0 0-.9-3.6c-.4-.8-.5-1.6.2-1.8s.8.3 1.8.3 1.3-1 1-1.3z"/><circle cx="13.4" cy="7.8" r=".4" fill="#231f20"/><path fill="#231f20" d="M12.9 8.8a2.1 2.1 0 0 1-1.5 1 8 8 0 0 1-3.1 0s-1.5-.7-1.2-1.6.3-.6.8 0a3.1 3.1 0 0 0 2.6 1 3.1 3.1 0 0 0 1.4-.6c.2-.2.8-.9 1 .2zm0-1.6a2.9 2.9 0 0 0-1.4-.8 4.4 4.4 0 0 0-1.6-.2 4.9 4.9 0 0 0-1.7.1 1.4 1.4 0 0 0-1.1 1 1.4 1.4 0 0 1 1-1.2l1.8-.3 1.7.3a3.5 3.5 0 0 1 1.3 1.1zm-6.1.6a2.3 2.3 0 0 0-1.8.3c-.5.4-.5 1-.8 1.6S3.1 12 2.5 13.1a2.9 2.9 0 0 0-.2.9.9.9 0 0 0 .1.9c-.3-.2-.3-.6-.3-.9a3 3 0 0 1 .2-1 35.4 35.4 0 0 1 1.6-3.4l.4-.9a1.4 1.4 0 0 1 .6-.7 1.7 1.7 0 0 1 1-.3 1 1 0 0 1 .9.1zm.8 3.2l-1.3 3.4s-.8 1.7-1.7 1.7a2.8 2.8 0 0 1-1.8-.5c-.2-.2.1-.7.6-.5a1.5 1.5 0 0 0 1.8-.2c.4-.5.4-2.9.9-3.9s.6-1 1-1a.7.7 0 0 1 .5 1zm-.2-9.5a7.6 7.6 0 0 1 1.2 1.9 4.7 4.7 0 0 1 .5 1 4.9 4.9 0 0 1 .1 1.2l-.3-1.1a3.1 3.1 0 0 1-.5-1 7.5 7.5 0 0 1-1-2zm-.3.4l.8 2.6a3.3 3.3 0 0 1 .2 1.1 1.8 1.8 0 0 0-1 .8c-.3.5-.9-.1-.6-.4s1.3-.4.9-1.5a7.5 7.5 0 0 1-.6-2.1s-.1-.8.3-.5z"/></svg>