<svg id="Layer_1" data-name="Layer 1" xmlns="http://www.w3.org/2000/svg" width="32" height="32" viewBox="0 0 32 32"><title>logo-32</title><path d="M6.1,22.4H3.5A3.3,3.3,0,0,1,.4,19.2,97.5,97.5,0,0,1,0,7.2,3.4,3.4,0,0,1,3,3.8l5.1-.2c7,0,11.7,2.6,11.7,8.6S13.4,22.4,6.1,22.4ZM8.3,7.9H7.4a.7.7,0,0,0-.7.6c-.1,2.4-.1,5.7-.1,8.9a.7.7,0,0,0,.7.7h0a5.4,5.4,0,0,0,5.2-5.6C12.5,8.8,10.3,7.9,8.3,7.9Z" fill="#243e92"/><path d="M19.2,28.9H18.1a3.9,3.9,0,0,1-3.6-3.6,60,60,0,0,1-.2-11.2,3.8,3.8,0,0,1,3.4-3.8l4.7-.2c3.8,0,8.4.5,8.4,4.6,0,1.9-1.2,3.1-3.1,4,2.3.4,4.3,1.9,4.3,4.4S27.9,28.9,19.2,28.9Zm2.5-8.6h0a.7.7,0,0,0-.8.7v3.5a.8.8,0,0,0,.8.8c1.9-.2,3-1.1,3-2.7S23.8,20.3,21.7,20.3Zm-.5-6V17a.7.7,0,0,0,.8.7c1.6-.1,2.4-.8,2.4-2.3s-1-1.7-2.4-1.8A.8.8,0,0,0,21.2,14.3Z" fill="#bd5ca3"/><circle cx="21.6" cy="5.4" r="2.2" fill="#59c6d0"/><path d="M23,4.6c-.3-.1-.5.1-.7.5a.8.8,0,0,0-.6-.9,1.2,1.2,0,0,0,.7-.5A1,1,0,0,0,23,4.6Z" fill="#fff"/><circle cx="23.8" cy="7.2" r="1.5" fill="#59c6d0"/><path d="M24.8,6.6a.7.7,0,0,0-.5.4.5.5,0,0,0-.4-.6.4.4,0,0,0,.4-.4A.6.6,0,0,0,24.8,6.6Z" fill="#fff"/><circle cx="10.6" cy="26.6" r="2.2" fill="#59c6d0"/><path d="M12,25.8c-.3,0-.5.2-.7.5a.8.8,0,0,0-.6-.9c.3,0,.5-.2.7-.5A.8.8,0,0,0,12,25.8Z" fill="#fff"/><circle cx="7.7" cy="25.5" r="1.5" fill="#59c6d0"/><path d="M8.7,24.9c-.2,0-.3.2-.4.4a.6.6,0,0,0-.5-.6.7.7,0,0,0,.5-.4A.5.5,0,0,0,8.7,24.9Z" fill="#fff"/></svg>