<svg id="Layer_1" data-name="Layer 1" xmlns="http://www.w3.org/2000/svg" width="256" height="256" viewBox="0 0 256 256"><title>logo-256</title><path d="M48.7,174.3l-20.5-.4A26.2,26.2,0,0,1,2.8,148.5C.4,115.8-.5,83.7.3,52.2A26.1,26.1,0,0,1,24.1,25.6c12-1.1,26.7-2.1,40.7-2.1,55.8,0,93.9,21.3,93.9,69.1C158.7,150.6,107.5,173.9,48.7,174.3Zm17.5-116c-2.2,0-4.7.2-7,.4a5.5,5.5,0,0,0-5.4,5.1c-.7,19-1.3,45.7-1.4,71.4,0,3,2.7,5.4,6,5.4h0c25.1,0,41.4-21.8,41.4-44.9C99.8,65.4,82.5,58.3,66.2,58.3Z" fill="#243e92"/><path d="M153.9,225.9h-8.8a29.4,29.4,0,0,1-28.9-29c-3.2-29.8-4.1-59.7-1.5-89.6a29.5,29.5,0,0,1,27-29.8c13.5-1.1,27.1-2,37.5-2.1,30.1,0,67.4,3.9,67.5,36.9,0,15.6-9.5,25.2-25.1,32,18.8,3.7,34.4,15.4,34.4,35.4C256.1,210.2,223.2,225.8,153.9,225.9ZM173.3,157h-.1a5.9,5.9,0,0,0-5.8,5.8v28.3a5.9,5.9,0,0,0,6.7,5.8c14.7-1.6,23.2-8.7,23.2-21.3C197.2,164.6,190.1,157,173.3,157ZM170,109.6l-.6,21a5.9,5.9,0,0,0,6.4,6c13.1-1.3,19.3-6.7,19.3-18.8,0-9.5-7.7-13.1-18.9-13.9A5.8,5.8,0,0,0,170,109.6Z" fill="#bd5ca3"/><circle cx="172.4" cy="37.7" r="17.9" fill="#59c6d0"/><path d="M184.1,31.5c-2.7-.2-4.4,1.3-5.5,3.8q.2-5.5-5.1-7.2a5.7,5.7,0,0,0,5.4-3.9A7,7,0,0,0,184.1,31.5Z" fill="#fff"/><circle cx="190.4" cy="52.2" r="12.1" fill="#59c6d0"/><path d="M198.2,48c-1.8-.1-2.9.9-3.7,2.6a4.4,4.4,0,0,0-3.5-4.8,3.9,3.9,0,0,0,3.7-2.7A4.8,4.8,0,0,0,198.2,48Z" fill="#fff"/><circle cx="84.4" cy="207.7" r="17.9" fill="#59c6d0"/><path d="M96,201.4c-2.6-.1-4.3,1.4-5.4,3.9.1-3.7-1.6-6.1-5.2-7.2a5.7,5.7,0,0,0,5.5-3.9Q90.9,199.8,96,201.4Z" fill="#fff"/><circle cx="62" cy="198.6" r="12.1" fill="#59c6d0"/><path d="M69.8,194.4c-1.8-.2-2.9.9-3.7,2.6a4.6,4.6,0,0,0-3.4-4.9,3.6,3.6,0,0,0,3.6-2.6A4.8,4.8,0,0,0,69.8,194.4Z" fill="#fff"/></svg>