<svg id="Layer_1" data-name="Layer 1" xmlns="http://www.w3.org/2000/svg" width="64" height="64" viewBox="0 0 64 64"><title>logo-64</title><path d="M12.2,44.9H7A6.6,6.6,0,0,1,.7,38.4C.1,30.2-.1,22.2.1,14.3A6.5,6.5,0,0,1,6,7.7c3-.3,6.7-.5,10.2-.5,14,0,23.5,5.3,23.5,17.2C39.7,38.9,26.9,44.8,12.2,44.9Zm4.4-29H14.8a1.3,1.3,0,0,0-1.3,1.2c-.2,4.8-.4,11.5-.4,17.9a1.4,1.4,0,0,0,1.5,1.3h0c6.3,0,10.3-5.4,10.3-11.2C24.9,17.6,20.6,15.9,16.6,15.9Z" fill="#243e92"/><path d="M38.5,57.8H36.3A7.5,7.5,0,0,1,29,50.5a119.6,119.6,0,0,1-.3-22.4,7.3,7.3,0,0,1,6.7-7.4l9.4-.6c7.5,0,16.8,1,16.9,9.3,0,3.9-2.4,6.3-6.3,8,4.7.9,8.6,3.8,8.6,8.8C64,53.8,55.8,57.7,38.5,57.8Zm4.8-17.3h0A1.5,1.5,0,0,0,41.8,42v7.1a1.5,1.5,0,0,0,1.7,1.4c3.7-.4,5.8-2.2,5.8-5.3S47.5,40.5,43.3,40.5Zm-.8-11.8v5.2A1.4,1.4,0,0,0,44,35.4c3.2-.3,4.8-1.6,4.8-4.7s-1.9-3.2-4.7-3.4A1.4,1.4,0,0,0,42.5,28.7Z" fill="#bd5ca3"/><circle cx="43.1" cy="10.7" r="4.5" fill="#59c6d0"/><path d="M46,9.1a1.4,1.4,0,0,0-1.3,1,1.7,1.7,0,0,0-1.3-1.8,1.3,1.3,0,0,0,1.3-1A1.7,1.7,0,0,0,46,9.1Z" fill="#fff"/><circle cx="47.6" cy="14.3" r="3" fill="#59c6d0"/><path d="M49.5,13.3a1,1,0,0,0-.9.6,1.1,1.1,0,0,0-.8-1.2,1,1,0,0,0,.9-.6A1.2,1.2,0,0,0,49.5,13.3Z" fill="#fff"/><circle cx="21.1" cy="53.2" r="4.5" fill="#59c6d0"/><path d="M24,51.6a1.5,1.5,0,0,0-1.4,1,1.6,1.6,0,0,0-1.2-1.8,1.3,1.3,0,0,0,1.3-1A1.6,1.6,0,0,0,24,51.6Z" fill="#fff"/><circle cx="15.5" cy="50.9" r="3" fill="#59c6d0"/><path d="M17.4,49.9c-.4-.1-.7.2-.9.6a1.1,1.1,0,0,0-.8-1.2,1,1,0,0,0,.9-.6A1.2,1.2,0,0,0,17.4,49.9Z" fill="#fff"/></svg>